<?xml version="1.0" encoding="utf-8"?>
<!-- Generator: Adobe Illustrator 21.1.0, SVG Export Plug-In . SVG Version: 6.00 Build 0)  -->
<svg version="1.1" id="Layer_1" xmlns="http://www.w3.org/2000/svg" xmlns:xlink="http://www.w3.org/1999/xlink" x="0px" y="0px"
	 viewBox="0 0 300 100" style="enable-background:new 0 0 300 100;" xml:space="preserve">
<style type="text/css">
	.st0{fill:url(#SVGID_1_);}
	.st1{fill:url(#SVGID_2_);}
	.st2{fill:url(#SVGID_3_);}
	.st3{fill:url(#SVGID_4_);}
	.st4{fill:url(#SVGID_5_);}
	.st5{fill:url(#SVGID_6_);}
</style>
<g>
	<linearGradient id="SVGID_1_" gradientUnits="userSpaceOnUse" x1="38.2598" y1="58.6802" x2="64.5" y2="58.6802">
		<stop  offset="0" style="stop-color:#D93589"/>
		<stop  offset="1" style="stop-color:#C72B5A"/>
	</linearGradient>
	<path class="st0" d="M40.6,82.7C39,80.3,38.3,77,38.3,73c0-2.4,0.3-5.5,0.9-9.2c0.6-3.8,1.4-7.3,2.4-10.5c0.5-1.7,1.1-2.9,1.9-3.5
		c0.8-0.6,2.1-1,3.8-1c2.7,0,4.1,0.9,4.1,2.7c0,1.3-0.5,4.4-1.5,9.3c-1.3,5.9-1.9,9.8-1.9,11.9c0,1.6,0.2,2.8,0.6,3.7
		c0.4,0.9,1.1,1.3,2.2,1.3c1,0,2.2-0.7,3.6-2c1.4-1.3,3.4-3.4,5.8-6.3c0.6-0.7,1.4-1.1,2.2-1.1c0.7,0,1.2,0.3,1.6,1s0.6,1.5,0.6,2.6
		c0,2.1-0.5,3.8-1.5,5c-5.3,6.5-10.2,9.7-14.8,9.7C44.7,86.4,42.2,85.2,40.6,82.7z M43.8,41.9c-1.1-1-1.7-2.5-1.7-4.4
		c0-1.9,0.7-3.4,2.2-4.7c1.5-1.3,3.3-1.9,5.5-1.9c2,0,3.6,0.5,4.8,1.4c1.2,1,1.8,2.3,1.8,4.1c0,2.1-0.7,3.8-2.1,5.1
		c-1.4,1.3-3.2,1.9-5.5,1.9C46.6,43.4,44.9,42.9,43.8,41.9z"/>
	<linearGradient id="SVGID_2_" gradientUnits="userSpaceOnUse" x1="57.7788" y1="51.8003" x2="119.5386" y2="51.8003">
		<stop  offset="0" style="stop-color:#D93589"/>
		<stop  offset="1" style="stop-color:#C72B5A"/>
	</linearGradient>
	<path class="st1" d="M68.3,85.6c-2.1-0.3-3.6-0.8-4.4-1.7c-0.8-0.9-1.1-2.2-1-4.2c0.4-5.3,1.3-11.8,2.6-19.6
		c1.4-7.8,3.1-15.2,5-22.4c0.4-1.3,1.1-2.3,2.2-2.8c1.1-0.5,2.6-0.8,4.4-0.8c3.3,0,4.9,0.9,4.9,2.7c0,0.7-0.2,1.6-0.5,2.6
		c-1.4,4.3-2.8,10-4.2,17.2c-1.4,7.2-2.4,14-3,20.5c1.6,0.2,3.4,0.2,5.4,0.2c9.3,0,16.3-2.8,20.9-8.5c4.6-5.7,6.9-13.2,6.9-22.6
		c0-6.3-1.8-11.3-5.4-14.7c-3.6-3.5-8.7-5.2-15.4-5.2c-4.3,0-8.5,0.7-12.7,2c-4.2,1.3-8,3.1-11.3,5.3c-0.7,0.5-1.4,0.7-2.2,0.7
		c-0.9,0-1.6-0.4-2.2-1.2c-0.5-0.8-0.8-1.7-0.8-2.8c0-1.3,0.2-2.3,0.6-3.2c0.4-0.8,1.1-1.6,2.2-2.3c3.7-2.5,8-4.4,13-5.7
		c5-1.3,9.7-2,14.3-2c6.5,0,12.1,1.1,16.9,3.4c4.7,2.3,8.4,5.6,11,10c2.6,4.4,3.8,9.7,3.8,15.8c0,8.1-1.6,15.1-4.8,21.1
		c-3.2,6-7.9,10.7-14,14c-6.1,3.3-13.4,5-21.9,5C75.7,86.4,72.2,86.1,68.3,85.6z"/>
	<linearGradient id="SVGID_3_" gradientUnits="userSpaceOnUse" x1="124.2593" y1="67.5603" x2="167.9395" y2="67.5603">
		<stop  offset="0" style="stop-color:#D93589"/>
		<stop  offset="1" style="stop-color:#C72B5A"/>
	</linearGradient>
	<path class="st2" d="M125.5,83.2c-0.8-2.1-1.2-5.5-1.2-10.2c0-6.9,1-13.5,3-19.8c0.5-1.5,1.3-2.7,2.4-3.4c1.1-0.7,2.6-1.1,4.6-1.1
		c1.1,0,1.8,0.1,2.2,0.4c0.4,0.3,0.6,0.8,0.6,1.5c0,0.9-0.4,2.8-1.2,5.8c-0.5,2.1-1,4-1.3,5.6c-0.3,1.6-0.6,3.6-0.8,5.9
		c1.8-4.6,3.7-8.3,5.9-11.2c2.2-2.9,4.3-4.9,6.4-6.2c2.1-1.2,4-1.8,5.8-1.8c3.5,0,5.2,1.7,5.2,5.2c0,0.7-0.2,2.4-0.7,5
		c-0.4,2.1-0.6,3.5-0.6,4c0,1.9,0.7,2.8,2,2.8c1.5,0,3.4-1.2,5.8-3.5c0.7-0.7,1.4-1,2.2-1c0.7,0,1.2,0.3,1.6,0.9
		c0.4,0.6,0.6,1.4,0.6,2.4c0,2-0.5,3.5-1.6,4.6c-1.5,1.5-3.2,2.9-5.2,4c-2,1.1-4.1,1.6-6.4,1.6c-2.8,0-5-0.7-6.4-2.2
		c-1.5-1.4-2.2-3.4-2.2-5.8c0-0.8,0.1-1.6,0.2-2.4c0.1-1.1,0.2-1.8,0.2-2.2c0-0.9-0.3-1.3-0.9-1.3c-0.8,0-1.9,0.9-3.2,2.7
		c-1.3,1.8-2.6,4.1-3.9,7.1c-1.3,2.9-2.3,6-3.1,9.3c-0.6,2.5-1.3,4.2-2,5.1c-0.8,0.9-2,1.3-3.6,1.3
		C127.8,86.4,126.3,85.3,125.5,83.2z"/>
	<linearGradient id="SVGID_4_" gradientUnits="userSpaceOnUse" x1="159.458" y1="67.4802" x2="204.5781" y2="67.4802">
		<stop  offset="0" style="stop-color:#D93589"/>
		<stop  offset="1" style="stop-color:#C72B5A"/>
	</linearGradient>
	<path class="st3" d="M162.4,82.8c-2-2.4-3-5.5-3-9.4c0-4.3,1-8.3,3-12.1c2-3.8,4.6-6.9,7.9-9.2c3.3-2.3,6.8-3.5,10.4-3.5
		c1.2,0,2,0.2,2.4,0.7c0.4,0.5,0.7,1.3,1,2.4c1.1-0.2,2.3-0.3,3.5-0.3c2.6,0,3.9,0.9,3.9,2.8c0,1.1-0.4,3.8-1.2,8
		c-1.2,6.1-1.8,10.4-1.8,12.8c0,0.8,0.2,1.4,0.6,1.9c0.4,0.5,0.9,0.7,1.6,0.7c1,0,2.2-0.7,3.7-2c1.4-1.3,3.4-3.4,5.8-6.4
		c0.6-0.7,1.4-1.1,2.2-1.1c0.7,0,1.2,0.3,1.6,1c0.4,0.6,0.6,1.5,0.6,2.6c0,2.1-0.5,3.8-1.5,5c-2.2,2.7-4.5,5-7,6.9
		c-2.5,1.9-4.8,2.8-7.1,2.8c-1.8,0-3.4-0.6-4.8-1.8c-1.5-1.2-2.6-2.8-3.3-4.9c-2.8,4.5-6.3,6.7-10.5,6.7
		C167,86.4,164.4,85.2,162.4,82.8z M176.6,76.2c1.1-1.4,1.8-3.2,2.3-5.5l3-14.7c-2.2,0.1-4.3,0.9-6.2,2.5c-1.9,1.6-3.4,3.8-4.5,6.4
		c-1.1,2.7-1.7,5.5-1.7,8.5c0,1.7,0.3,2.9,1,3.7c0.7,0.8,1.6,1.2,2.8,1.2S175.5,77.6,176.6,76.2z"/>
	<linearGradient id="SVGID_5_" gradientUnits="userSpaceOnUse" x1="199.1367" y1="67.5203" x2="251.2168" y2="67.5203">
		<stop  offset="0" style="stop-color:#D93589"/>
		<stop  offset="1" style="stop-color:#C72B5A"/>
	</linearGradient>
	<path class="st4" d="M251.2,51.4c0,0.6-0.2,1.5-0.6,2.6c-4.3,10.1-8.4,18.2-12.2,24.4c-1.9,3-3.7,5.1-5.2,6.2
		c-1.5,1.1-3.3,1.7-5.3,1.7c-2.1,0-3.7-0.8-4.8-2.5c-1-1.7-1.7-4.4-2-8.2c-0.1-1.4-0.2-3.5-0.3-6.2c-1.7,4.6-3.2,8.1-4.5,10.5
		c-1.4,2.4-2.7,4.1-4,5c-1.3,0.9-2.9,1.4-4.7,1.4c-2.2,0-3.9-0.9-5.2-2.6c-1.3-1.7-2-4.4-2.4-8.1c-0.6-7.5-1-14-1-19.6v-2.8
		c0.1-1.8,0.5-3.1,1.4-3.7c0.9-0.7,2.2-1,4.2-1c1.4,0,2.4,0.3,3.1,0.9c0.7,0.6,1,1.6,1,3.1c0,6.1,0.4,14.1,1.1,23.9
		c1.8-3.7,3.4-7.3,4.9-10.7c1.5-3.4,3.2-7.8,5.2-13.1c0.6-1.6,1.3-2.7,2.1-3.2c0.8-0.6,1.8-0.8,2.9-0.8c1.5,0,2.6,0.3,3.4,0.9
		c0.7,0.6,1.1,1.6,1.1,3.1V65c0,5.3,0,9.2,0.1,11.5c2.5-4.3,4.5-8,6-11.1c1.6-3.1,3.3-7.4,5.3-12.7c0.6-1.6,1.4-2.7,2.3-3.2
		s2.2-0.8,3.6-0.8C249.7,48.6,251.2,49.6,251.2,51.4z"/>
	<linearGradient id="SVGID_6_" gradientUnits="userSpaceOnUse" x1="246.5762" y1="78.96" x2="261.4561" y2="78.96">
		<stop  offset="0" style="stop-color:#D93589"/>
		<stop  offset="1" style="stop-color:#C72B5A"/>
	</linearGradient>
	<path class="st5" d="M248.4,84.5c-1.2-1.3-1.8-3-1.8-5c0-2.4,0.7-4.3,2-5.8c1.4-1.4,3.3-2.2,5.7-2.2c2.3,0,4.1,0.6,5.3,1.7
		c1.2,1.1,1.8,2.8,1.8,5.1c0,2.5-0.7,4.4-2.1,5.9c-1.4,1.5-3.3,2.2-5.7,2.2C251.3,86.4,249.6,85.8,248.4,84.5z"/>
</g>
</svg>
